<svg xmlns="http://www.w3.org/2000/svg" viewBox="0 0 1200 900" role="img" aria-label="Immunalia POST-OP RECOVER Professional">
  <defs>
    <linearGradient id="scene" x1="0" y1="0" x2="1" y2="1"><stop offset="0" stop-color="#f7f7f6"/><stop offset=".55" stop-color="#e9eae9"/><stop offset="1" stop-color="#d7d9d8"/></linearGradient>
    <linearGradient id="front" x1="0" y1="0" x2=".9" y2="1"><stop offset="0" stop-color="#ffffff"/><stop offset=".72" stop-color="#fafafa"/><stop offset="1" stop-color="#eeeeec"/></linearGradient>
    <linearGradient id="side" x1="0" y1="0" x2="1" y2=".15"><stop offset="0" stop-color="#eeeeec"/><stop offset="1" stop-color="#d4d5d2"/></linearGradient>
    <filter id="shadow" x="-30%" y="-30%" width="170%" height="190%"><feDropShadow dx="0" dy="28" stdDeviation="23" flood-color="#12202b" flood-opacity=".28"/></filter>
  </defs>
  <rect width="1200" height="900" fill="url(#scene)"/>
  <ellipse cx="600" cy="805" rx="395" ry="38" fill="#20303b" opacity=".13"/>
  <g filter="url(#shadow)">
    <polygon points="215,132 312,78 858,101 760,155" fill="#fff"/>
    <polygon points="215,132 312,78 312,770 215,720" fill="url(#side)"/>
    <polygon points="760,155 858,101 858,737 760,790" fill="#1d6b37"/>
    <rect x="312" y="101" width="448" height="689" fill="url(#front)"/>
    <rect x="312" y="650" width="448" height="140" fill="#1d6b37"/>
    <rect x="312" y="101" width="9" height="549" fill="#d3aa50"/>
    <path d="M215 132L312 101h448l98 0-98 54H312z" fill="#fff" opacity=".58"/>
    <g transform="translate(330 132)">
      <path d="M118 0c24 6 38 21 48 44-30-12-51-7-70 13 5-25 11-42 22-57z" fill="#c9a14d"/>
      <path d="M113 9c-28 0-48 12-64 34 27-7 49-3 67 14-7-18-8-33-3-48z" fill="#c9a14d"/>
      <text x="168" y="40" font-family="Georgia,'Times New Roman',serif" font-size="48" fill="#102c57">Immunalia</text>
      <text x="170" y="69" font-family="Arial,sans-serif" font-size="18" font-weight="700" letter-spacing="6" fill="#bd9340">BIOTECH</text>
    </g>
    <line x1="360" y1="235" x2="708" y2="235" stroke="#d4d4d1" stroke-width="2"/>
    <text x="534" y="270" text-anchor="middle" font-family="Arial,sans-serif" font-size="21" letter-spacing="7" fill="#3f4247">PROFESSIONAL</text>
    <text x="360" y="340" font-family="Arial,sans-serif" font-size="44" font-weight="750" fill="#1d6b37"><tspan x="360" dy="0">POST-OP</tspan><tspan x="360" dy="54">RECOVER</tspan></text>
    <text x="360" y="455" font-family="Arial,sans-serif" font-size="16" font-weight="700" fill="#1d6b37">PROFESSIONAL SUPPORT</text>
    <text x="360" y="481" font-family="Arial,sans-serif" font-size="14.5" font-weight="600" fill="#26364a">FOR POST-OPERATIVE RECOVERY</text>
    <g transform="translate(655 360)" fill="none" stroke="#1d6b37" stroke-width="6" stroke-linecap="round" stroke-linejoin="round"><circle cx="47" cy="34" r="45"/><path d="M47 8v52M21 34h52"/></g>
    <line x1="358" y1="522" x2="708" y2="522" stroke="#d3d4d3" stroke-width="2"/>
    <g transform="translate(365 574)"><circle cx="0" cy="0" r="19" fill="none" stroke="#1d6b37" stroke-width="3"/><text x="0" y="6" text-anchor="middle" font-family="Arial,sans-serif" font-size="14" font-weight="700" fill="#1d6b37">H</text><text x="28" y="4" font-family="Arial,sans-serif" font-size="11.5" font-weight="700" letter-spacing=".35" fill="#26364a">HEALING</text></g>
    <g transform="translate(510 574)"><circle cx="0" cy="0" r="19" fill="none" stroke="#1d6b37" stroke-width="3"/><text x="0" y="6" text-anchor="middle" font-family="Arial,sans-serif" font-size="14" font-weight="700" fill="#1d6b37">+</text><text x="28" y="4" font-family="Arial,sans-serif" font-size="11.5" font-weight="700" letter-spacing=".35" fill="#26364a">CARE</text></g>
    <g transform="translate(655 574)"><circle cx="0" cy="0" r="19" fill="none" stroke="#1d6b37" stroke-width="3"/><text x="0" y="6" text-anchor="middle" font-family="Arial,sans-serif" font-size="14" font-weight="700" fill="#1d6b37">C</text><text x="28" y="4" font-family="Arial,sans-serif" font-size="11.5" font-weight="700" letter-spacing=".35" fill="#26364a">COMFORT</text></g>
    <text x="350" y="730" font-family="Arial,sans-serif" font-size="62" font-weight="300" fill="#fff">30</text>
    <text x="434" y="705" font-family="Arial,sans-serif" font-size="14" font-weight="700" letter-spacing=".8" fill="#fff">SUBLINGUAL TABLETS</text>
    <text x="434" y="731" font-family="Arial,sans-serif" font-size="12.5" letter-spacing=".8" fill="#fff">DIETARY SUPPLEMENT</text>
    <text x="708" y="704" text-anchor="end" font-family="Arial,sans-serif" font-size="11.5" fill="#fff">Developed by</text>
    <text x="708" y="728" text-anchor="end" font-family="Arial,sans-serif" font-size="12.5" font-weight="700" fill="#fff">Immunalia Biotech</text>
    <g transform="translate(246 190) rotate(90)"><text x="0" y="0" font-family="Georgia,'Times New Roman',serif" font-size="45" fill="#102c57">Immunalia</text><text x="7" y="28" font-family="Arial,sans-serif" font-size="11" letter-spacing="6" fill="#bd9340">BIOTECH</text></g>
    <rect x="215" y="655" width="97" height="65" fill="#1d6b37"/>
  </g>
</svg>