<svg xmlns="http://www.w3.org/2000/svg" viewBox="0 0 1200 900" role="img" aria-labelledby="t d"><title id="t">Immunalia Dental Recover Professional</title><desc id="d">Prémiový koncept obalu pro stomatologická pracoviště</desc><defs><linearGradient id="bg" x1="0" y1="0" x2="1" y2="1"><stop stop-color="#f9faf9"/><stop offset="1" stop-color="#dfecea"/></linearGradient><linearGradient id="side" x1="0" y1="0" x2="0" y2="1"><stop stop-color="#0c5d61"/><stop offset="1" stop-color="#062e34"/></linearGradient><filter id="shadow"><feDropShadow dx="0" dy="18" stdDeviation="20" flood-opacity=".22"/></filter></defs><rect width="1200" height="900" fill="#eef2f1"/><g filter="url(#shadow)" transform="translate(255 95)"><path d="M70 0h500l95 74v620H70z" fill="url(#bg)"/><path d="M570 0l95 74v620h-95z" fill="url(#side)"/><path d="M70 0h500l95 74H165z" fill="#fff" opacity=".95"/><rect x="70" y="0" width="18" height="694" fill="#b99449"/><text x="128" y="115" font-family="Arial,sans-serif" font-size="25" letter-spacing="6" fill="#19333a">IMMUNALIA</text><text x="128" y="151" font-family="Arial,sans-serif" font-size="13" letter-spacing="4" fill="#8b6b34">PROFESSIONAL</text><circle cx="368" cy="306" r="93" fill="none" stroke="#0c5d61" stroke-width="3" opacity=".65"/><path d="M325 286c20-58 67-58 86 0 18 55-12 116-43 131-31-15-61-76-43-131z" fill="none" stroke="#0c5d61" stroke-width="5"/><path d="M344 309c14 11 33 11 48 0" fill="none" stroke="#b99449" stroke-width="4" stroke-linecap="round"/><text x="128" y="489" font-family="Georgia,serif" font-size="50" fill="#17353b">Dental</text><text x="128" y="548" font-family="Georgia,serif" font-size="50" font-weight="700" fill="#0c5d61">Recover</text><text x="128" y="593" font-family="Arial,sans-serif" font-size="14" letter-spacing="2.5" fill="#53696c">PROFESSIONAL SUPPORT AROUND DENTAL PROCEDURES</text><line x1="128" y1="624" x2="515" y2="624" stroke="#b99449"/><text x="128" y="660" font-family="Arial,sans-serif" font-size="14" fill="#33494c">10 sublingválních tablet · odborný pilot</text><text transform="translate(612 580) rotate(-90)" font-family="Arial,sans-serif" font-size="14" letter-spacing="3" fill="#e7f0ee">DENTAL PROFESSIONAL</text></g></svg>