<svg xmlns="http://www.w3.org/2000/svg" viewBox="0 0 1200 900" role="img" aria-label="Immunalia Dental Recover Professional, 10 sublinguálních tablet">
  <defs>
    <linearGradient id="scene" x1="0" y1="0" x2="1" y2="1"><stop offset="0" stop-color="#f7f7f6"/><stop offset=".55" stop-color="#e9eae9"/><stop offset="1" stop-color="#d7d9d8"/></linearGradient>
    <linearGradient id="front" x1="0" y1="0" x2=".9" y2="1"><stop offset="0" stop-color="#ffffff"/><stop offset=".72" stop-color="#fafafa"/><stop offset="1" stop-color="#eeeeec"/></linearGradient>
    <linearGradient id="side" x1="0" y1="0" x2="1" y2=".15"><stop offset="0" stop-color="#eeeeec"/><stop offset="1" stop-color="#d4d5d2"/></linearGradient>
    <filter id="shadow" x="-30%" y="-30%" width="170%" height="190%"><feDropShadow dx="0" dy="28" stdDeviation="23" flood-color="#12202b" flood-opacity=".28"/></filter>
    <g id="brand-logo">
      <path d="M0 38C21 11 48 5 72 17c12 6 22 15 30 28-22-7-42-5-59 7 10 2 20 8 28 18-15-8-28-11-41-8-12 3-22 7-30 12 4-14 12-26 25-36C16 38 8 38 0 38Z" fill="#c99a3d"/>
      <path d="M58 20c8-10 18-17 31-22-3 11-2 21 4 31-13-7-25-10-35-9Z" fill="#c99a3d"/>
      <text x="112" y="55" font-family="Georgia,'Times New Roman',serif" font-size="52" fill="#102d5d">Immunalia</text>
      <text x="116" y="84" font-family="Arial,sans-serif" font-size="17" font-weight="700" letter-spacing="7" fill="#c18f32">BIOTECH</text>
    </g>
  </defs>
  <rect width="1200" height="900" fill="url(#scene)"/>
  <ellipse cx="600" cy="805" rx="395" ry="38" fill="#20303b" opacity=".13"/>
  <g filter="url(#shadow)">
    <polygon points="215,132 312,78 858,101 760,155" fill="#fff"/>
    <polygon points="215,132 312,78 312,770 215,720" fill="url(#side)"/>
    <polygon points="760,155 858,101 858,737 760,790" fill="#112e63"/>
    <rect x="312" y="101" width="448" height="689" fill="url(#front)"/>
    <rect x="312" y="650" width="448" height="140" fill="#112e63"/>
    <rect x="312" y="101" width="9" height="549" fill="#d3aa50"/>
    <path d="M215 132L312 101h448l98 0-98 54H312z" fill="#fff" opacity=".58"/>
    <g transform="translate(360 119) scale(.82)"><use href="#brand-logo"/></g>
    <line x1="360" y1="235" x2="708" y2="235" stroke="#d4d4d1" stroke-width="2"/>
    <text x="534" y="270" text-anchor="middle" font-family="Arial,sans-serif" font-size="21" letter-spacing="7" fill="#3f4247">PROFESSIONAL</text>
    <text x="360" y="340" font-family="Arial,sans-serif" font-size="46" font-weight="750" fill="#112e63"><tspan x="360" dy="0">DENTAL</tspan><tspan x="360" dy="54">RECOVER</tspan></text>
    <text x="360" y="455" font-family="Arial,sans-serif" font-size="16" font-weight="700" fill="#112e63">PROFESSIONAL SUPPORT</text>
    <text x="360" y="481" font-family="Arial,sans-serif" font-size="14.5" font-weight="600" fill="#26364a">FOR DENTAL SURGERY</text>
    <g transform="translate(660 360)" fill="none" stroke="#112e63" stroke-width="6" stroke-linecap="round" stroke-linejoin="round"><path d="M0 18c0-29 19-49 47-49s47 20 47 49c0 34-13 63-25 84-7 13-14 11-15-5l-2-28c-1-10-11-10-12 0l-2 28c-1 16-8 18-15 5C12 81 0 52 0 18z"/></g>
    <line x1="358" y1="522" x2="708" y2="522" stroke="#d3d4d3" stroke-width="2"/>
    <g transform="translate(365 574)"><circle cx="0" cy="0" r="19" fill="none" stroke="#112e63" stroke-width="3"/><text x="0" y="6" text-anchor="middle" font-family="Arial,sans-serif" font-size="14" font-weight="700" fill="#112e63">C</text><text x="28" y="4" font-family="Arial,sans-serif" font-size="11.5" font-weight="700" letter-spacing=".35" fill="#26364a">COMFORT</text></g>
    <g transform="translate(510 574)"><circle cx="0" cy="0" r="19" fill="none" stroke="#112e63" stroke-width="3"/><text x="0" y="6" text-anchor="middle" font-family="Arial,sans-serif" font-size="14" font-weight="700" fill="#112e63">+</text><text x="28" y="4" font-family="Arial,sans-serif" font-size="11.5" font-weight="700" letter-spacing=".35" fill="#26364a">CARE</text></g>
    <g transform="translate(655 574)"><circle cx="0" cy="0" r="19" fill="none" stroke="#112e63" stroke-width="3"/><text x="0" y="6" text-anchor="middle" font-family="Arial,sans-serif" font-size="14" font-weight="700" fill="#112e63">R</text><text x="28" y="4" font-family="Arial,sans-serif" font-size="11.5" font-weight="700" letter-spacing=".35" fill="#26364a">RECOVERY</text></g>
    <text x="350" y="730" font-family="Arial,sans-serif" font-size="62" font-weight="300" fill="#fff">10</text>
    <text x="434" y="705" font-family="Arial,sans-serif" font-size="14" font-weight="700" letter-spacing=".8" fill="#fff">SUBLINGUAL TABLETS</text>
    <text x="434" y="731" font-family="Arial,sans-serif" font-size="12.5" letter-spacing=".8" fill="#fff">DIETARY SUPPLEMENT</text>
    <text x="708" y="704" text-anchor="end" font-family="Arial,sans-serif" font-size="11.5" fill="#fff">Developed by</text>
    <text x="708" y="728" text-anchor="end" font-family="Arial,sans-serif" font-size="12.5" font-weight="700" fill="#fff">Immunalia Biotech</text>
    <g transform="translate(250 192) rotate(90)"><text x="0" y="0" font-family="Georgia,'Times New Roman',serif" font-size="45" fill="#102d5d">Immunalia</text><text x="4" y="28" font-family="Arial,sans-serif" font-size="11" font-weight="700" letter-spacing="6" fill="#c18f32">BIOTECH</text></g>
    <rect x="215" y="655" width="97" height="65" fill="#112e63"/>
  </g>
</svg>