<svg xmlns="http://www.w3.org/2000/svg" viewBox="0 0 1200 900"><defs><linearGradient id="bg"><stop stop-color="#fbfaf8"/><stop offset="1" stop-color="#eee4df"/></linearGradient><filter id="s"><feDropShadow dy="18" stdDeviation="20" flood-opacity=".22"/></filter></defs><rect width="1200" height="900" fill="#f2efed"/><g filter="url(#s)" transform="translate(255 95)"><path d="M70 0h500l95 74v620H70z" fill="url(#bg)"/><path d="M570 0l95 74v620h-95z" fill="#6d2634"/><path d="M70 0h500l95 74H165z" fill="#fff"/><rect x="70" width="18" height="694" fill="#b99449"/><image href="imunelia-logo-nav.svg" x="125" y="65" width="285" height="78" preserveAspectRatio="xMinYMid meet"/><text x="128" y="165" font-family="Arial" font-size="13" letter-spacing="4" fill="#8b6b34">PROFESSIONAL</text><circle cx="368" cy="306" r="93" fill="none" stroke="#6d2634" stroke-width="3"/><path d="M304 306h128" stroke="#6d2634" stroke-width="5"/><path d="M323 279c28 24 62 24 90 0M323 333c28-24 62-24 90 0" fill="none" stroke="#b99449" stroke-width="4"/><text x="128" y="489" font-family="Georgia" font-size="46" fill="#4e313b">Post‑Op</text><text x="128" y="548" font-family="Georgia" font-size="50" font-weight="700" fill="#6d2634">Recover</text><text x="128" y="593" font-family="Arial" font-size="14" letter-spacing="2.2" fill="#67555c">PROFESSIONAL SUPPORT AROUND AMBULATORY PROCEDURES</text><line x1="128" y1="624" x2="515" y2="624" stroke="#b99449"/><text x="128" y="660" font-family="Arial" font-size="14" fill="#55454a">10 sublingválních tablet · odborný pilot</text></g></svg>