<svg xmlns="http://www.w3.org/2000/svg" viewBox="0 0 1200 900" role="img" aria-labelledby="t d"><title id="t">Immunalia Flow Professional</title><desc id="d">Prémiový koncept obalu pro gynekologická pracoviště</desc><defs><linearGradient id="bg" x1="0" y1="0" x2="1" y2="1"><stop stop-color="#faf8fb"/><stop offset="1" stop-color="#e8deef"/></linearGradient><linearGradient id="side" x1="0" y1="0" x2="0" y2="1"><stop stop-color="#6d477f"/><stop offset="1" stop-color="#362141"/></linearGradient><filter id="shadow"><feDropShadow dx="0" dy="18" stdDeviation="20" flood-opacity=".22"/></filter></defs><rect width="1200" height="900" fill="#f1edf4"/><g filter="url(#shadow)" transform="translate(255 95)"><path d="M70 0h500l95 74v620H70z" fill="url(#bg)"/><path d="M570 0l95 74v620h-95z" fill="url(#side)"/><path d="M70 0h500l95 74H165z" fill="#fff" opacity=".95"/><rect x="70" y="0" width="18" height="694" fill="#b99449"/><text x="128" y="115" font-family="Arial,sans-serif" font-size="25" letter-spacing="6" fill="#3f3246">IMMUNALIA</text><text x="128" y="151" font-family="Arial,sans-serif" font-size="13" letter-spacing="4" fill="#8b6b34">PROFESSIONAL</text><circle cx="368" cy="306" r="93" fill="none" stroke="#6d477f" stroke-width="3" opacity=".55"/><path d="M319 314c20-55 77-55 98 0M319 314c17 53 81 53 98 0" fill="none" stroke="#6d477f" stroke-width="5" stroke-linecap="round"/><path d="M340 278c12 16 43 16 56 0" fill="none" stroke="#b99449" stroke-width="4" stroke-linecap="round"/><text x="128" y="507" font-family="Georgia,serif" font-size="58" font-weight="700" fill="#6d477f">Flow</text><text x="128" y="553" font-family="Arial,sans-serif" font-size="18" letter-spacing="4" fill="#4e3c56">PROFESSIONAL</text><text x="128" y="593" font-family="Arial,sans-serif" font-size="14" letter-spacing="2.2" fill="#685b70">GYNAECOLOGY &amp; PELVIC SUPPORT PROGRAM</text><line x1="128" y1="624" x2="515" y2="624" stroke="#b99449"/><text x="128" y="660" font-family="Arial,sans-serif" font-size="14" fill="#554b5a">10 sublingválních tablet · odborný pilot</text><text transform="translate(612 580) rotate(-90)" font-family="Arial,sans-serif" font-size="14" letter-spacing="3" fill="#f1e8f4">GYNAECOLOGY PROFESSIONAL</text></g></svg>