<svg xmlns="http://www.w3.org/2000/svg" viewBox="0 0 1200 900"><defs><linearGradient id="bg"><stop stop-color="#faf8fb"/><stop offset="1" stop-color="#e8deef"/></linearGradient><filter id="s"><feDropShadow dy="18" stdDeviation="20" flood-opacity=".22"/></filter><clipPath id="logoCrop"><rect x="120" y="55" width="315" height="70"/></clipPath></defs><rect width="1200" height="900" fill="#f1edf4"/><g filter="url(#s)" transform="translate(255 95)"><path d="M70 0h500l95 74v620H70z" fill="url(#bg)"/><path d="M570 0l95 74v620h-95z" fill="#6d477f"/><path d="M70 0h500l95 74H165z" fill="#fff"/><rect x="70" width="18" height="694" fill="#b99449"/><image href="imunelia-logo-nav.svg" x="112" y="35" width="335" height="120" clip-path="url(#logoCrop)" preserveAspectRatio="xMinYMid meet"/><text x="128" y="154" font-family="Arial,sans-serif" font-size="13" letter-spacing="4" fill="#8b6b34">PROFESSIONAL</text><circle cx="368" cy="306" r="93" fill="none" stroke="#6d477f" stroke-width="3"/><path d="M319 314c20-55 77-55 98 0M319 314c17 53 81 53 98 0" fill="none" stroke="#6d477f" stroke-width="5"/><path d="M340 278c12 16 43 16 56 0" fill="none" stroke="#b99449" stroke-width="4"/><text x="128" y="507" font-family="Georgia,serif" font-size="58" font-weight="700" fill="#6d477f">Flow</text><text x="128" y="553" font-family="Arial,sans-serif" font-size="18" letter-spacing="4" fill="#4e3c56">PROFESSIONAL</text><text x="128" y="593" font-family="Arial,sans-serif" font-size="14" letter-spacing="2.2" fill="#685b70">GYNAECOLOGY &amp; PELVIC SUPPORT PROGRAM</text><line x1="128" y1="624" x2="515" y2="624" stroke="#b99449"/><text x="128" y="654" font-family="Arial,sans-serif" font-size="14" fill="#554b5a">10 sublingválních tablet · odborný pilot</text><text x="128" y="680" font-family="Arial,sans-serif" font-size="10" letter-spacing="1.5" fill="#7c7081">DEVELOPED BY IMMUNALIA BIOTECH</text></g></svg>