<svg xmlns="http://www.w3.org/2000/svg" viewBox="0 0 360 96" role="img" aria-labelledby="immumalia-compact-title immumalia-compact-desc">
  <title id="immumalia-compact-title">Immumalia Biotech</title>
  <desc id="immumalia-compact-desc">Compact Immumalia Biotech logo</desc>
  <defs>
    <linearGradient id="compact-gold" x1="40" y1="10" x2="40" y2="78" gradientUnits="userSpaceOnUse">
      <stop offset="0" stop-color="#f1dc9a"/>
      <stop offset="0.55" stop-color="#c8a24a"/>
      <stop offset="1" stop-color="#9d741f"/>
    </linearGradient>
  </defs>
  <rect width="360" height="96" fill="none"/>
  <g fill="none" fill-rule="evenodd">
    <path d="M40 8c18 0 32 14 32 32 0 24-21 37-32 43C29 77 8 64 8 40 8 22 22 8 40 8Z" fill="url(#compact-gold)"/>
    <path d="M27 51c14-3 24-13 29-29 10 16 7 35-6 46-9 8-22 10-35 5 10-5 17-12 21-22-4 1-9 1-14-1 2-2 4-3 5-4Z" fill="#fff8e7" opacity="0.95"/>
    <path d="M43 26c-4 15-12 28-24 39" stroke="#082b55" stroke-width="2.6" stroke-linecap="round" opacity="0.34"/>
    <text x="96" y="48" fill="#082b55" font-family="Georgia, 'Times New Roman', serif" font-size="34" letter-spacing="1">Immumalia</text>
    <text x="99" y="70" fill="#c8a24a" font-family="Arial, Helvetica, sans-serif" font-size="11" font-weight="700" letter-spacing="5">BIOTECH</text>
  </g>
</svg>
