<svg xmlns="http://www.w3.org/2000/svg" viewBox="0 0 560 210" role="img" aria-labelledby="immumalia-compact-title immumalia-compact-desc">
  <title id="immumalia-compact-title">Immumalia Biotech</title>
  <desc id="immumalia-compact-desc">Compact Immumalia Biotech logo with gold swallow above navy serif wordmark</desc>
  <defs>
    <linearGradient id="compactGold" x1="198" y1="18" x2="366" y2="94" gradientUnits="userSpaceOnUse">
      <stop offset="0" stop-color="#d9ae58"/>
      <stop offset="0.52" stop-color="#b8832b"/>
      <stop offset="1" stop-color="#d2aa5a"/>
    </linearGradient>
  </defs>
  <rect width="560" height="210" fill="none"/>
  <path fill="url(#compactGold)" d="M220 75c23-20 48-36 81-46 20-7 24-3 8 11-23 21-35 40-35 63 22-10 47-15 78-17 11-1 12 3 3 7-28 13-50 26-69 42 20 5 41 12 63 22 8 4 7 7-2 6-36-6-67-12-94-22-18 9-35 21-52 35 6-17 12-32 19-45-17-9-33-13-49-9 13-15 28-25 47-25-7-7-18-11-35-9 12-7 24-11 37-13Z"/>
  <path fill="#fffaf0" fill-opacity="0.86" d="M250 96c22 14 47 13 78 2-24 16-45 22-65 18-8-1-13-9-13-20Z"/>
  <path fill="#b8832b" d="M174 100c10-8 22-10 35-5-8 7-12 17-13 29-6-10-13-18-22-24Z"/>
  <text x="280" y="155" text-anchor="middle" fill="#082b55" font-family="Georgia, 'Times New Roman', serif" font-size="72" letter-spacing="0">Immumalia</text>
  <text x="282" y="194" text-anchor="middle" fill="#b8832b" font-family="Arial, Helvetica, sans-serif" font-size="22" font-weight="700" letter-spacing="15">BIOTECH</text>
</svg>
