<svg xmlns="http://www.w3.org/2000/svg" viewBox="0 0 620 180" role="img" aria-labelledby="immumalia-logo-title immumalia-logo-desc">
  <title id="immumalia-logo-title">Immumalia Biotech</title>
  <desc id="immumalia-logo-desc">Immumalia Biotech wordmark with swallow symbol</desc>
  <defs>
    <linearGradient id="swallow-gold" x1="30" y1="22" x2="150" y2="128" gradientUnits="userSpaceOnUse">
      <stop offset="0" stop-color="#f2dda0"/>
      <stop offset="0.48" stop-color="#c8a24a"/>
      <stop offset="1" stop-color="#9c741f"/>
    </linearGradient>
  </defs>
  <rect width="620" height="180" fill="none"/>
  <g fill="none" fill-rule="evenodd">
    <g transform="translate(52 30)">
      <path d="M4 78c40-7 75-32 118-76-8 36-25 65-51 86 28-3 58 7 87 31-48 4-88-5-121-25-10 15-22 26-37 34 8-17 10-33 4-50Z" fill="url(#swallow-gold)"/>
      <path d="M75 74c28-14 58-18 90-10-31 12-56 27-77 47-1-13-5-25-13-37Z" fill="#e7c978" opacity="0.9"/>
      <path d="M48 82c22-11 42-28 60-52" stroke="#fff7e4" stroke-width="4" stroke-linecap="round" opacity="0.64"/>
    </g>
    <text x="382" y="91" text-anchor="middle" fill="#082b55" font-family="Georgia, 'Times New Roman', serif" font-size="64" letter-spacing="1.4">Immumalia</text>
    <text x="382" y="131" text-anchor="middle" fill="#c8a24a" font-family="Arial, Helvetica, sans-serif" font-size="20" font-weight="700" letter-spacing="10">BIOTECH</text>
    <path d="M250 146h84M430 146h84" stroke="#c8a24a" stroke-width="2" opacity="0.72"/>
  </g>
</svg>
