<svg xmlns="http://www.w3.org/2000/svg" viewBox="0 0 1200 430" role="img" aria-labelledby="immumalia-logo-title immumalia-logo-desc">
  <title id="immumalia-logo-title">Immumalia Biotech</title>
  <desc id="immumalia-logo-desc">Immumalia Biotech logo with gold swallow above a navy serif wordmark</desc>
  <defs>
    <linearGradient id="swallowGold" x1="438" y1="44" x2="792" y2="205" gradientUnits="userSpaceOnUse">
      <stop offset="0" stop-color="#d9ae58"/>
      <stop offset="0.5" stop-color="#b8832b"/>
      <stop offset="1" stop-color="#d2aa5a"/>
    </linearGradient>
  </defs>
  <rect width="1200" height="430" fill="none"/>
  <path fill="url(#swallowGold)" d="M485.6 173.2c48.4-41.2 101.1-75.4 168.8-96.8 42.8-13.5 49.8-7.1 16.9 22.5-47.7 42.8-72.4 84.1-72.7 131.6 45.9-20.6 97.9-31.4 161.5-36.4 22.2-1.7 24.7 5.6 5.3 14.5-56.8 26-103.8 53.6-143.6 86.2 42.4 10.1 85.8 25.1 131.2 45.9 17.2 7.9 14.7 15.4-4.1 12.5-74.6-11.3-139.8-25.6-196.1-45.8-37.3 18.4-72.8 43-108.7 72.8 11.9-35.9 24.5-67.2 39.9-93.3-34.9-19.2-67.6-26.4-101.8-18 26.6-32.4 57.5-51.8 97.8-53.2-14.4-14.5-38.1-22.2-73.7-19 25.3-14.5 50.8-22.5 79.3-23.5Z"/>
  <path fill="#fffaf0" fill-opacity="0.86" d="M548.6 217.3c44.7 28.2 97.6 27.1 163.1 4.8-49.9 33.2-94.9 46.3-135.1 38.4-16.6-3.2-28.2-18.7-28-43.2Z"/>
  <path fill="#b8832b" d="M388.9 225.6c21.8-16.8 45.6-21.1 72.4-10.3-16.7 15.2-25.5 35.2-26.4 60-12.5-20.3-27.9-36.7-46-49.7Z"/>
  <text x="600" y="306" text-anchor="middle" fill="#082b55" font-family="Georgia, 'Times New Roman', serif" font-size="156" letter-spacing="0">Immumalia</text>
  <text x="602" y="392" text-anchor="middle" fill="#b8832b" font-family="Arial, Helvetica, sans-serif" font-size="54" font-weight="700" letter-spacing="34">BIOTECH</text>
</svg>
