<svg xmlns="http://www.w3.org/2000/svg" viewBox="0 0 360 96" role="img" aria-labelledby="immumalia-compact-title immumalia-compact-desc">
  <title id="immumalia-compact-title">Immumalia Biotech</title>
  <desc id="immumalia-compact-desc">Compact Immumalia Biotech wordmark with swallow symbol</desc>
  <defs>
    <linearGradient id="compact-swallow-gold" x1="13" y1="15" x2="86" y2="78" gradientUnits="userSpaceOnUse">
      <stop offset="0" stop-color="#f2dda0"/>
      <stop offset="0.5" stop-color="#c8a24a"/>
      <stop offset="1" stop-color="#9c741f"/>
    </linearGradient>
  </defs>
  <rect width="360" height="96" fill="none"/>
  <g fill="none" fill-rule="evenodd">
    <g transform="translate(9 11)">
      <path d="M2 47c24-4 45-19 71-46-5 22-15 39-31 52 17-2 35 4 53 18-29 2-53-3-73-15-6 9-13 16-22 21 5-10 6-20 2-30Z" fill="url(#compact-swallow-gold)"/>
      <path d="M44 45c17-8 35-11 54-6-18 7-34 16-46 28-1-8-3-15-8-22Z" fill="#e7c978" opacity="0.9"/>
      <path d="M28 50c13-7 25-17 36-31" stroke="#fff7e4" stroke-width="2.4" stroke-linecap="round" opacity="0.64"/>
    </g>
    <text x="107" y="45" fill="#082b55" font-family="Georgia, 'Times New Roman', serif" font-size="34" letter-spacing="0.8">Immumalia</text>
    <text x="110" y="68" fill="#c8a24a" font-family="Arial, Helvetica, sans-serif" font-size="11" font-weight="700" letter-spacing="5">BIOTECH</text>
  </g>
</svg>
