<svg xmlns="http://www.w3.org/2000/svg" viewBox="0 0 1600 900" role="img" aria-labelledby="title desc"><title id="title">Immunalia hero visual</title><desc id="desc">Moderní abstraktní vizuál propojující imunitu, přírodní péči a odbornou prevenci.</desc><defs><linearGradient id="bg" x1="0" x2="1" y1="0" y2="0"><stop offset="0" stop-color="#082d2c"/><stop offset=".44" stop-color="#0f5f58"/><stop offset="1" stop-color="#eaf7ef"/></linearGradient><radialGradient id="glow" cx=".72" cy=".42" r=".55"><stop offset="0" stop-color="#ffffff" stop-opacity=".78"/><stop offset=".42" stop-color="#9ed8bd" stop-opacity=".28"/><stop offset="1" stop-color="#0d4b47" stop-opacity="0"/></radialGradient><filter id="blur"><feGaussianBlur stdDeviation="18"/></filter></defs><rect width="1600" height="900" fill="url(#bg)"/><rect width="1600" height="900" fill="url(#glow)"/><g opacity=".4" filter="url(#blur)"><circle cx="1050" cy="210" r="180" fill="#ffffff"/><circle cx="1300" cy="655" r="190" fill="#7fc99f"/><circle cx="980" cy="690" r="120" fill="#f2ae55"/></g><g fill="none" stroke="#ffffff" stroke-opacity=".36" stroke-width="2"><path d="M870 248 C980 160 1120 214 1190 310 S1350 466 1484 380"/><path d="M885 620 C1008 518 1116 668 1240 552 S1410 492 1506 604"/><path d="M1036 164 C1050 280 1195 320 1250 430 S1340 588 1490 696"/></g><g><circle cx="870" cy="248" r="10" fill="#ffffff" opacity=".9"/><circle cx="1027" cy="185" r="17" fill="#63bd8c"/><circle cx="1190" cy="310" r="13" fill="#f2ae55"/><circle cx="1350" cy="466" r="17" fill="#ffffff" opacity=".78"/><circle cx="1484" cy="380" r="10" fill="#3c9b73"/><circle cx="885" cy="620" r="11" fill="#f2ae55"/><circle cx="1008" cy="518" r="15" fill="#ffffff" opacity=".82"/><circle cx="1240" cy="552" r="18" fill="#3c9b73"/><circle cx="1410" cy="492" r="12" fill="#ffffff" opacity=".75"/><circle cx="1506" cy="604" r="16" fill="#f2ae55"/></g><g transform="translate(1040 235)"><rect x="24" y="0" width="92" height="330" rx="24" fill="#ffffff" opacity=".23" stroke="#ffffff" stroke-opacity=".56" stroke-width="3"/><rect x="38" y="190" width="64" height="120" rx="16" fill="#f2ae55" opacity=".74"/><ellipse cx="70" cy="330" rx="146" ry="30" fill="#082d2c" opacity=".22"/></g><g fill="#58ad81" opacity=".86"><ellipse cx="1186" cy="650" rx="86" ry="25" transform="rotate(-25 1186 650)"/><ellipse cx="1326" cy="585" rx="74" ry="22" transform="rotate(18 1326 585)"/><ellipse cx="1392" cy="715" rx="95" ry="28" transform="rotate(-10 1392 715)"/><ellipse cx="1028" cy="706" rx="76" ry="24" transform="rotate(32 1028 706)"/></g><g fill="#ffffff" opacity=".2"><circle cx="1260" cy="250" r="68"/><circle cx="1448" cy="254" r="34"/><circle cx="1324" cy="360" r="25"/><circle cx="930" cy="382" r="42"/><circle cx="1494" cy="760" r="52"/></g><rect width="780" height="900" fill="#082d2c" opacity=".42"/></svg>