<svg xmlns="http://www.w3.org/2000/svg" viewBox="0 0 238 64" role="img" aria-labelledby="title desc">
  <title id="title">Imunelia</title>
  <desc id="desc">Logo značky Imunelia</desc>
  <defs>
    <linearGradient id="mark" x1="8" y1="8" x2="56" y2="56" gradientUnits="userSpaceOnUse">
      <stop offset="0" stop-color="#7fd29b"/>
      <stop offset=".55" stop-color="#1f8f73"/>
      <stop offset="1" stop-color="#0e5f58"/>
    </linearGradient>
  </defs>
  <g fill="none" fill-rule="evenodd">
    <path d="M32 5c12.7 0 24 5.1 24 5.1v20.4c0 15.9-10.2 24.1-24 29.4C18.2 54.6 8 46.4 8 30.5V10.1S19.3 5 32 5Z" fill="url(#mark)"/>
    <path d="M22 33.3c8.9-1.4 15.7-7.1 19.2-17.4 4.9 9.3 2.8 20.2-4.6 26.4-5.2 4.3-12.1 5.5-19.4 3.4 4-2.2 7.2-5.3 9.2-9.2-2.7.4-5.5.1-8.4-.9 1.3-1 2.6-1.8 4-2.3Z" fill="#fff" opacity=".96"/>
    <path d="M33.1 20.2c-2.4 7.8-6.9 14.2-13.9 20" stroke="#0f5f58" stroke-width="2.4" stroke-linecap="round" opacity=".55"/>
    <text x="74" y="39" fill="#ffffff" font-family="Inter, Arial, sans-serif" font-size="28" font-weight="800" letter-spacing="0">Imunelia</text>
    <text x="76" y="53" fill="#d8f2e3" font-family="Inter, Arial, sans-serif" font-size="9.5" font-weight="700" letter-spacing="2.2">IMUNITA A VITALITA</text>
  </g>
</svg>