<svg xmlns="http://www.w3.org/2000/svg" viewBox="0 0 800 1067" role="img" aria-label="Immunalia Post-Op Recover Professional, 10 sublingual tablets"><defs><linearGradient id="bg" x1="0" y1="0" x2="1" y2="1"><stop offset="0" stop-color="#ffffff"/><stop offset="1" stop-color="#edf4ef"/></linearGradient><filter id="s"><feDropShadow dx="0" dy="20" stdDeviation="20" flood-opacity=".22"/></filter></defs><rect width="800" height="1067" fill="url(#bg)"/><ellipse cx="400" cy="930" rx="230" ry="34" fill="#000" opacity=".12"/><g filter="url(#s)" transform="translate(145 95)"><polygon points="0,90 420,0 510,62 90,150" fill="#f8f8f5"/><polygon points="420,0 510,62 510,760 420,700" fill="#d9e3dc"/><rect x="0" y="90" width="420" height="700" rx="8" fill="#fff"/><rect x="0" y="330" width="420" height="290" fill="#2f7a4c"/><text x="42" y="160" font-family="Arial,sans-serif" font-size="32" fill="#b99a5e" font-weight="700">IMMUNALIA</text><text x="42" y="192" font-family="Arial,sans-serif" font-size="16" fill="#777" letter-spacing="4">BIOTECH</text><path d="M300 130c38-30 70-28 95-15-26 1-44 11-59 31 21-2 40 3 59 19-39-8-71-1-95 22 12-24 12-40 0-57z" fill="#c2a165"/><text x="42" y="390" font-family="Arial,sans-serif" font-size="34" fill="#fff" font-weight="700">POST-OP</text><text x="42" y="440" font-family="Arial,sans-serif" font-size="38" fill="#fff" font-weight="700">RECOVER</text><text x="42" y="490" font-family="Arial,sans-serif" font-size="18" fill="#d8eee0">PROFESSIONAL</text><line x1="42" y1="525" x2="360" y2="525" stroke="#a6d1b5"/><text x="42" y="565" font-family="Arial,sans-serif" font-size="17" fill="#fff">10 SUBLINGUAL TABLETS</text><text x="42" y="730" font-family="Arial,sans-serif" font-size="15" fill="#555">DIETARY SUPPLEMENT</text></g></svg>